<svg width="32" height="32" viewBox="0 0 32 32" fill="none" xmlns="http://www.w3.org/2000/svg">
<path fill-rule="evenodd" clip-rule="evenodd" d="M15.71 4.02997C9.76 4.43997 5.01 9.37997 4.82 15.34C4.74 17.75 5.39 20.08 6.69 22.08L3.75 28C3.84 28 11.02 26.06 11.02 26.06C12.71 26.97 14.61 27.44 16.54 27.44C23 27.44 28.26 22.18 28.26 15.72C28.26 9.25997 22.55 3.55997 15.71 4.02997ZM16.53 25.4C14.82 25.4 13.13 24.94 11.66 24.08C11.5 23.99 11.29 23.84 11.29 23.84C11.29 23.84 10.96 23.95 10.87 23.97L7.66 24.85L9.03 21.83C7.48 19.92 6.72 17.56 6.87 15.1C7.16 10.3 11.04 6.38997 15.84 6.05997C21.48 5.66997 26.2 10.15 26.2 15.71C26.2 21.27 21.86 25.39 16.52 25.39L16.53 25.4Z" fill="#0C0421"/>
<path fill-rule="evenodd" clip-rule="evenodd" d="M21.0399 17.4801C20.5499 17.1901 19.9099 16.8601 19.3299 17.1001C18.8899 17.2801 18.5999 17.9801 18.3199 18.3301C18.1699 18.5101 17.9999 18.5401 17.7699 18.4501C16.0999 17.7901 14.8299 16.6701 13.9099 15.1401C13.7499 14.9001 13.7799 14.7101 13.9699 14.4901C14.2499 14.1601 14.5999 13.7901 14.6699 13.3501C14.7499 12.9101 14.5399 12.3901 14.3599 12.0001C14.1299 11.5001 13.8699 10.7801 13.3699 10.5001C12.9099 10.2401 12.2999 10.3901 11.8899 10.7201C11.1799 11.3001 10.8399 12.2001 10.8499 13.1001C10.8499 13.3601 10.8799 13.6101 10.9399 13.8601C11.4399 15.9101 12.8499 17.6401 14.4999 18.8901C15.9199 19.9701 18.2699 21.4301 20.1399 21.0801C21.0499 20.9101 21.9399 20.3501 22.2999 19.4701C22.4099 19.2101 22.4599 18.9201 22.3999 18.6501C22.2799 18.0901 21.5099 17.7501 21.0499 17.4801H21.0399Z" fill="#0C0421"/>
</svg>
